<svg width="16" height="16" viewBox="0 0 16 16" fill="none" xmlns="http://www.w3.org/2000/svg">
<path d="M4.15133 7.33333H11.8493C12.424 7.33333 12.7293 6.65333 12.3473 6.22333L8.49867 1.89333C8.43624 1.82287 8.35957 1.76646 8.27372 1.72782C8.18787 1.68919 8.09481 1.66921 8.00067 1.66921C7.90653 1.66921 7.81346 1.68919 7.72761 1.72782C7.64176 1.76646 7.56509 1.82287 7.50267 1.89333L3.65267 6.22333C3.27066 6.65333 3.576 7.33333 4.15133 7.33333ZM7.502 14.106C7.56443 14.1765 7.6411 14.2329 7.72694 14.2715C7.81279 14.3101 7.90586 14.3301 8 14.3301C8.09414 14.3301 8.18721 14.3101 8.27305 14.2715C8.3589 14.2329 8.43557 14.1765 8.498 14.106L12.3467 9.776C12.7293 9.34667 12.424 8.66667 11.8487 8.66667H4.15133C3.57667 8.66667 3.27133 9.34667 3.65333 9.77667L7.502 14.106Z" fill="#838383"/>
</svg>
