<svg width="16" height="16" viewBox="0 0 16 16" fill="none" xmlns="http://www.w3.org/2000/svg">
<path d="M4.15135 7.33333H11.8493C12.424 7.33333 12.7293 6.65333 12.3473 6.22333L8.49868 1.89333C8.43625 1.82287 8.35958 1.76646 8.27374 1.72782C8.18789 1.68919 8.09482 1.66921 8.00068 1.66921C7.90654 1.66921 7.81347 1.68919 7.72763 1.72782C7.64178 1.76646 7.56511 1.82287 7.50268 1.89333L3.65268 6.22333C3.27068 6.65333 3.57601 7.33333 4.15135 7.33333ZM7.50201 14.106C7.56444 14.1765 7.64111 14.2329 7.72696 14.2715C7.81281 14.3101 7.90587 14.3301 8.00001 14.3301C8.09415 14.3301 8.18722 14.3101 8.27307 14.2715C8.35892 14.2329 8.43559 14.1765 8.49801 14.106L12.3467 9.776C12.7293 9.34667 12.424 8.66667 11.8487 8.66667H4.15135C3.57668 8.66667 3.27135 9.34667 3.65335 9.77667L7.50201 14.106Z" fill="#838383"/>
</svg>
