<svg width="24" height="24" viewBox="0 0 24 24" fill="none" xmlns="http://www.w3.org/2000/svg">
<path d="M3.678 8.87999H12M12 15.12H20.322M12 3.67899V20.323M3.353 15.05C2.88237 13.0439 2.88237 10.9561 3.353 8.94999C3.6724 7.58851 4.36554 6.34323 5.35439 5.35438C6.34324 4.36553 7.58852 3.67239 8.95 3.35299C10.956 2.88299 13.044 2.88299 15.05 3.35299C16.4115 3.67239 17.6568 4.36553 18.6456 5.35438C19.6345 6.34323 20.3276 7.58851 20.647 8.94999C21.117 10.956 21.117 13.044 20.647 15.05C20.3276 16.4115 19.6345 17.6567 18.6456 18.6456C17.6568 19.6344 16.4115 20.3276 15.05 20.647C13.044 21.117 10.956 21.117 8.95 20.647C7.58852 20.3276 6.34324 19.6344 5.35439 18.6456C4.36554 17.6567 3.6724 16.4115 3.353 15.05Z" stroke="black" stroke-width="1.5"/>
</svg>
