<svg width="242" height="131" viewBox="0 0 242 131" fill="none" xmlns="http://www.w3.org/2000/svg">
<path d="M0 121C1.38914e-06 105.11 3.12976 89.3757 9.21058 74.6953C15.2914 60.0149 24.2042 46.6759 35.4401 35.4401C46.676 24.2042 60.0149 15.2914 74.6953 9.21056C89.3757 3.12975 105.11 -5.87217e-06 121 0C136.89 5.87218e-06 152.624 3.12977 167.305 9.2106C181.985 15.2914 195.324 24.2042 206.56 35.4401C217.796 46.676 226.709 60.015 232.789 74.6954C238.87 89.3758 242 105.11 242 121L217.8 121C217.8 108.288 215.296 95.7006 210.432 83.9563C205.567 72.212 198.437 61.5408 189.448 52.5521C180.459 43.5634 169.788 36.4331 158.044 31.5685C146.299 26.7038 133.712 24.2 121 24.2C108.288 24.2 95.7006 26.7038 83.9563 31.5684C72.2119 36.4331 61.5408 43.5633 52.5521 52.552C43.5634 61.5408 36.4331 72.2119 31.5685 83.9562C26.7038 95.7005 24.2 108.288 24.2 121H0Z" fill="#FF6838"/>
<path d="M12.1 121C5.47258 121 -0.0616642 115.614 0.594526 109.019C2.39944 90.8796 8.28632 73.3271 17.8764 57.7029C29.5654 38.6592 46.2994 23.2242 66.2235 13.1087C86.1477 2.99323 108.484 -1.40762 130.756 0.393987C153.028 2.19559 174.366 10.1293 192.406 23.3157L178.124 42.8525C163.693 32.3034 146.622 25.9565 128.805 24.5152C110.987 23.0739 93.1181 26.5946 77.1788 34.687C61.2395 42.7794 47.8523 55.1274 38.5011 70.3624C31.2501 82.1757 26.6454 95.367 24.9428 109.031C24.1233 115.607 18.7274 121 12.1 121Z" fill="#FFB45D"/>
<path d="M0 121C2.0646e-06 97.3838 6.91092 74.2838 19.8808 54.5478C32.8506 34.8118 51.3124 19.3026 72.9901 9.93225L82.592 32.1458C65.2499 39.6421 50.4805 52.0494 40.1046 67.8382C29.7287 83.627 24.2 102.107 24.2 121H0Z" fill="#58BD7D"/>
<g filter="url(#filter0_d_33_18)">
<circle cx="18.9062" cy="83.1875" r="7.5625" fill="#FCFCFD"/>
</g>
<defs>
<filter id="filter0_d_33_18" x="1.34375" y="75.625" width="35.125" height="55.125" filterUnits="userSpaceOnUse" color-interpolation-filters="sRGB">
<feFlood flood-opacity="0" result="BackgroundImageFix"/>
<feColorMatrix in="SourceAlpha" type="matrix" values="0 0 0 0 0 0 0 0 0 0 0 0 0 0 0 0 0 0 127 0" result="hardAlpha"/>
<feMorphology radius="20" operator="erode" in="SourceAlpha" result="effect1_dropShadow_33_18"/>
<feOffset dy="30"/>
<feGaussianBlur stdDeviation="15"/>
<feColorMatrix type="matrix" values="0 0 0 0 0.0583333 0 0 0 0 0.0583333 0 0 0 0 0.0583333 0 0 0 0.2 0"/>
<feBlend mode="multiply" in2="BackgroundImageFix" result="effect1_dropShadow_33_18"/>
<feBlend mode="normal" in="SourceGraphic" in2="effect1_dropShadow_33_18" result="shape"/>
</filter>
</defs>
</svg>
