<svg width="14" height="11" viewBox="0 0 14 11" fill="none" xmlns="http://www.w3.org/2000/svg">
<path d="M5.1154 10.5116C4.99573 10.5112 4.87742 10.4862 4.76781 10.4382C4.65821 10.3901 4.55965 10.3201 4.47828 10.2323L0.236577 5.72006C0.0780168 5.55108 -0.0069235 5.32604 0.000441988 5.09443C0.00780748 4.86283 0.106875 4.64364 0.275852 4.48508C0.444829 4.32652 0.669873 4.24158 0.901476 4.24894C1.13308 4.25631 1.35227 4.35538 1.51083 4.52435L5.10668 8.35584L12.4467 0.326293C12.5212 0.233536 12.6139 0.156987 12.719 0.101346C12.8242 0.0457055 12.9396 0.0121484 13.0582 0.0027361C13.1768 -0.00667624 13.296 0.00825495 13.4087 0.0466124C13.5213 0.0849698 13.6248 0.145943 13.713 0.225789C13.8012 0.305634 13.8722 0.402665 13.9215 0.510922C13.9708 0.61918 13.9975 0.736377 13.9998 0.855317C14.0022 0.974257 13.9803 1.09243 13.9353 1.20257C13.8904 1.31271 13.8234 1.41251 13.7384 1.49581L5.76126 10.2236C5.68065 10.3129 5.58244 10.3846 5.4728 10.4342C5.36315 10.4838 5.24445 10.5101 5.12413 10.5116H5.1154Z" fill="black"/>
</svg>
