<svg width="130" height="130" viewBox="0 0 130 130" fill="none" xmlns="http://www.w3.org/2000/svg">
<g filter="url(#filter0_d_22_78)">
<rect x="32" y="24" width="66" height="66" rx="22" fill="white"/>
</g>
<path d="M65.02 65.53C62.69 65.53 60.36 65.16 58.15 64.42C57.31 64.13 56.67 63.54 56.39 62.77C56.1 62 56.2 61.15 56.66 60.39L57.81 58.48C58.05 58.08 58.27 57.28 58.27 56.81V53.92C58.27 50.2 61.3 47.17 65.02 47.17C68.74 47.17 71.77 50.2 71.77 53.92V56.81C71.77 57.27 71.99 58.08 72.23 58.49L73.37 60.39C73.8 61.11 73.88 61.98 73.59 62.77C73.4484 63.1565 73.2209 63.5058 72.9247 63.7916C72.6285 64.0774 72.2713 64.2923 71.88 64.42C69.68 65.16 67.35 65.53 65.02 65.53ZM65.02 48.67C62.13 48.67 59.77 51.02 59.77 53.92V56.81C59.77 57.54 59.47 58.62 59.1 59.25L57.95 61.16C57.73 61.53 57.67 61.92 57.8 62.25C57.92 62.59 58.22 62.85 58.63 62.99C62.7784 64.39 67.2716 64.39 71.42 62.99C71.78 62.87 72.06 62.6 72.19 62.24C72.32 61.88 72.29 61.49 72.09 61.16L70.94 59.25C70.56 58.6 70.27 57.53 70.27 56.8V53.92C70.27 51.02 67.92 48.67 65.02 48.67Z" fill="black"/>
<path d="M66.88 48.94C66.81 48.94 66.74 48.93 66.67 48.91C66.38 48.83 66.1 48.77 65.83 48.73C64.98 48.62 64.16 48.68 63.39 48.91C63.11 49 62.81 48.91 62.62 48.7C62.5253 48.5965 62.4619 48.4683 62.4371 48.3303C62.4124 48.1922 62.4272 48.05 62.48 47.92C62.6791 47.406 63.0294 46.9646 63.4847 46.6539C63.94 46.3432 64.4788 46.178 65.03 46.18C66.17 46.18 67.17 46.86 67.58 47.92C67.68 48.19 67.63 48.49 67.44 48.7C67.29 48.86 67.08 48.94 66.88 48.94Z" fill="black"/>
<path d="M65.02 67.81C64.03 67.81 63.07 67.41 62.37 66.71C61.67 66.01 61.27 65.05 61.27 64.06H62.77C62.77 64.65 63.01 65.23 63.43 65.65C63.85 66.07 64.43 66.31 65.02 66.31C66.26 66.31 67.27 65.3 67.27 64.06H68.77C68.77 66.13 67.09 67.81 65.02 67.81Z" fill="black"/>
<defs>
<filter id="filter0_d_22_78" x="0" y="0" width="130" height="130" filterUnits="userSpaceOnUse" color-interpolation-filters="sRGB">
<feFlood flood-opacity="0" result="BackgroundImageFix"/>
<feColorMatrix in="SourceAlpha" type="matrix" values="0 0 0 0 0 0 0 0 0 0 0 0 0 0 0 0 0 0 127 0" result="hardAlpha"/>
<feOffset dy="8"/>
<feGaussianBlur stdDeviation="16"/>
<feComposite in2="hardAlpha" operator="out"/>
<feColorMatrix type="matrix" values="0 0 0 0 0 0 0 0 0 0 0 0 0 0 0 0 0 0 0.08 0"/>
<feBlend mode="normal" in2="BackgroundImageFix" result="effect1_dropShadow_22_78"/>
<feBlend mode="normal" in="SourceGraphic" in2="effect1_dropShadow_22_78" result="shape"/>
</filter>
</defs>
</svg>
