<svg width="17" height="17" viewBox="0 0 17 17" fill="none" xmlns="http://www.w3.org/2000/svg">
<path d="M0.653846 15.6924C0.480435 15.6924 0.314127 15.7612 0.191507 15.8839C0.0688871 16.0065 0 16.1728 0 16.3462C0 16.5196 0.0688871 16.6859 0.191507 16.8085C0.314127 16.9311 0.480435 17 0.653846 17V15.6924ZM16.3462 17C16.5196 17 16.6859 16.9311 16.8085 16.8085C16.9311 16.6859 17 16.5196 17 16.3462C17 16.1728 16.9311 16.0065 16.8085 15.8839C16.6859 15.7612 16.5196 15.6924 16.3462 15.6924V17ZM10.7091 2.66993C10.7091 2.49653 10.6402 2.33023 10.5176 2.20761C10.395 2.085 10.2287 2.01611 10.0553 2.01611C9.88187 2.01611 9.71556 2.085 9.59294 2.20761C9.47032 2.33023 9.40144 2.49653 9.40144 2.66993H10.7091ZM14.3306 7.59889C14.504 7.59889 14.6703 7.53001 14.7929 7.40739C14.9155 7.28478 14.9844 7.11847 14.9844 6.94507C14.9844 6.77166 14.9155 6.60536 14.7929 6.48274C14.6703 6.36013 14.504 6.29124 14.3306 6.29124V7.59889ZM0.653846 17H16.3462V15.6924H0.653846V17ZM13.8685 1.70663L15.293 3.13197L16.218 2.2079L14.7926 0.782564L13.8685 1.70663ZM15.293 5.0577L8.09026 12.2611L9.01436 13.1852L16.218 5.98177L15.293 5.0577ZM4.73908 8.91002L11.9427 1.70663L11.0186 0.781692L3.81497 7.98595L4.73908 8.90915V8.91002ZM7.31959 12.6447L4.32759 13.0718L4.51241 14.3664L7.50441 13.9401L7.31959 12.6447ZM3.92656 12.6717L4.35374 9.67979L3.06 9.49498L2.63282 12.4869L3.92656 12.6717ZM4.32759 13.0736C4.27309 13.0815 4.21751 13.0757 4.16525 13.0583C4.113 13.0409 4.06552 13.0116 4.02658 12.9727C3.98764 12.9338 3.95833 12.8863 3.94097 12.834C3.9236 12.7818 3.91867 12.7262 3.92656 12.6717L2.63195 12.4877C2.59551 12.7431 2.61903 13.0026 2.70066 13.2473C2.78229 13.4921 2.91978 13.7144 3.10224 13.8968C3.28471 14.0791 3.50713 14.2165 3.75189 14.298C3.99665 14.3796 4.25703 14.403 4.51241 14.3664L4.32759 13.0736ZM3.81497 7.98595C3.4066 8.39433 3.14169 8.92326 3.06 9.49498L4.35374 9.67979C4.39559 9.38775 4.53159 9.1175 4.73908 8.90915L3.81497 7.98595ZM8.09026 12.2611C7.88173 12.4692 7.61131 12.6033 7.31959 12.6447L7.50441 13.9401C8.07614 13.8584 8.60597 13.5926 9.01436 13.1843L8.09026 12.2611ZM15.2939 3.1311C15.8257 3.66287 15.8257 4.52505 15.2939 5.05683L16.218 5.9809C16.7185 5.48031 16.9997 4.80141 16.9997 4.09353C16.9997 3.38564 16.7185 2.70674 16.218 2.20616L15.2939 3.1311ZM14.7935 0.781692C14.2929 0.281179 13.614 0 12.9061 0C12.1981 0 11.5192 0.281179 11.0186 0.781692L11.9427 1.70663C12.4745 1.17486 13.3376 1.17486 13.8685 1.70663L14.7935 0.781692ZM10.0553 2.66906L9.40144 2.66993V2.68388C9.40198 2.71472 9.40343 2.74554 9.40579 2.77629C9.41131 2.8533 9.41974 2.93007 9.43108 3.00644C9.45723 3.19648 9.51041 3.45801 9.61415 3.76661C9.8199 4.38557 10.2262 5.18846 11.0177 5.9809L11.9427 5.05683C11.3107 4.42392 11.0038 3.80148 10.8538 3.35253C10.7951 3.17946 10.7519 3.0015 10.7248 2.82075C10.7186 2.77734 10.714 2.73372 10.7109 2.68998L10.7091 2.66383V2.66819L10.0553 2.66906ZM11.0186 5.98177C11.8111 6.77333 12.614 7.17957 13.233 7.38531C13.5416 7.48905 13.8031 7.54223 13.9932 7.56838C14.1001 7.58368 14.2078 7.59328 14.3157 7.59715H14.3297L14.3306 6.94332L14.3314 6.2895H14.3358H14.3096C14.2659 6.28616 14.2223 6.28122 14.1789 6.27468C14.0568 6.25724 13.8729 6.22063 13.6471 6.14566C13.1972 5.99572 12.5756 5.68885 11.9427 5.05595L11.0186 5.9809V5.98177Z" fill="black"/>
</svg>
