<svg width="24" height="24" viewBox="0 0 24 24" fill="none" xmlns="http://www.w3.org/2000/svg">
<path d="M15.24 22.27H15.11C10.67 22.27 8.53 20.52 8.16 16.6C8.12 16.19 8.42 15.82 8.84 15.78C9.24 15.74 9.62 16.05 9.66 16.46C9.95 19.6 11.43 20.77 15.12 20.77H15.25C19.32 20.77 20.76 19.33 20.76 15.26V8.74001C20.76 4.67001 19.32 3.23001 15.25 3.23001H15.12C11.41 3.23001 9.93 4.42001 9.66 7.62001C9.61 8.03001 9.26 8.34001 8.84 8.30001C8.74144 8.29231 8.64538 8.26523 8.55731 8.22032C8.46924 8.1754 8.39091 8.11355 8.3268 8.03829C8.2627 7.96304 8.21408 7.87586 8.18374 7.78178C8.1534 7.68769 8.14193 7.58854 8.15 7.49001C8.49 3.51001 10.64 1.73001 15.11 1.73001H15.24C20.15 1.73001 22.25 3.83001 22.25 8.74001V15.26C22.25 20.17 20.15 22.27 15.24 22.27Z" fill="black"/>
<path d="M15 12.75H3.62C3.21 12.75 2.87 12.41 2.87 12C2.87 11.59 3.21 11.25 3.62 11.25H15C15.41 11.25 15.75 11.59 15.75 12C15.75 12.41 15.41 12.75 15 12.75Z" fill="black"/>
<path d="M5.85 16.1C5.66 16.1 5.47 16.03 5.32 15.88L1.97 12.53C1.83052 12.3889 1.7523 12.1984 1.7523 12C1.7523 11.8016 1.83052 11.6111 1.97 11.47L5.32 8.12C5.61 7.83 6.09 7.83 6.38 8.12C6.67 8.41 6.67 8.89 6.38 9.18L3.56 12L6.38 14.82C6.67 15.11 6.67 15.59 6.38 15.88C6.24 16.03 6.04 16.1 5.85 16.1Z" fill="black"/>
</svg>
