<svg width="24" height="24" viewBox="0 0 24 24" fill="none" xmlns="http://www.w3.org/2000/svg">
<path d="M3.297 5.234C3.40749 4.7628 3.64736 4.33181 3.98959 3.98959C4.33182 3.64736 4.7628 3.40749 5.234 3.297C6.0667 3.10168 6.9333 3.10168 7.766 3.297C8.2372 3.40749 8.66818 3.64736 9.01041 3.98959C9.35264 4.33181 9.59251 4.7628 9.703 5.234C9.898 6.067 9.898 6.934 9.703 7.766C9.59251 8.2372 9.35264 8.66818 9.01041 9.01041C8.66818 9.35263 8.2372 9.5925 7.766 9.703C6.933 9.898 6.066 9.898 5.234 9.703C4.7628 9.5925 4.33182 9.35263 3.98959 9.01041C3.64736 8.66818 3.40749 8.2372 3.297 7.766C3.10172 6.93329 3.10172 6.0667 3.297 5.234Z" stroke="black" stroke-width="1.5"/>
<path d="M3.297 16.234C3.40749 15.7628 3.64736 15.3318 3.98959 14.9896C4.33182 14.6474 4.7628 14.4075 5.234 14.297C6.06671 14.1018 6.93329 14.1018 7.766 14.297C8.2372 14.4075 8.66818 14.6474 9.01041 14.9896C9.35264 15.3318 9.59251 15.7628 9.703 16.234C9.898 17.067 9.898 17.934 9.703 18.766C9.59251 19.2372 9.35264 19.6682 9.01041 20.0104C8.66818 20.3526 8.2372 20.5925 7.766 20.703C6.933 20.898 6.066 20.898 5.234 20.703C4.7628 20.5925 4.33182 20.3526 3.98959 20.0104C3.64736 19.6682 3.40749 19.2372 3.297 18.766C3.10172 17.9333 3.10172 17.0667 3.297 16.234Z" stroke="black" stroke-width="1.5"/>
<path d="M14.297 5.234C14.4075 4.7628 14.6474 4.33181 14.9896 3.98959C15.3318 3.64736 15.7628 3.40749 16.234 3.297C17.0667 3.10168 17.9333 3.10168 18.766 3.297C19.2372 3.40749 19.6682 3.64736 20.0104 3.98959C20.3526 4.33181 20.5925 4.7628 20.703 5.234C20.898 6.067 20.898 6.934 20.703 7.766C20.5925 8.2372 20.3526 8.66818 20.0104 9.01041C19.6682 9.35263 19.2372 9.5925 18.766 9.703C17.933 9.898 17.066 9.898 16.234 9.703C15.7628 9.5925 15.3318 9.35263 14.9896 9.01041C14.6474 8.66818 14.4075 8.2372 14.297 7.766C14.1018 6.93329 14.1018 6.06671 14.297 5.234Z" stroke="black" stroke-width="1.5"/>
<path d="M14.297 16.234C14.4075 15.7628 14.6474 15.3318 14.9896 14.9896C15.3318 14.6474 15.7628 14.4075 16.234 14.297C17.0667 14.1018 17.9333 14.1018 18.766 14.297C19.2372 14.4075 19.6682 14.6474 20.0104 14.9896C20.3526 15.3318 20.5925 15.7628 20.703 16.234C20.898 17.067 20.898 17.934 20.703 18.766C20.5925 19.2372 20.3526 19.6682 20.0104 20.0104C19.6682 20.3526 19.2372 20.5925 18.766 20.703C17.933 20.898 17.066 20.898 16.234 20.703C15.7628 20.5925 15.3318 20.3526 14.9896 20.0104C14.6474 19.6682 14.4075 19.2372 14.297 18.766C14.1018 17.9333 14.1018 17.0667 14.297 16.234Z" stroke="black" stroke-width="1.5"/>
</svg>
