<svg width="40" height="40" viewBox="0 0 40 40" fill="none" xmlns="http://www.w3.org/2000/svg">
<path fill-rule="evenodd" clip-rule="evenodd" d="M10.4167 13.3333C10.4167 13.0018 10.5484 12.6839 10.7828 12.4495C11.0172 12.215 11.3351 12.0833 11.6667 12.0833H20C20.3315 12.0833 20.6495 12.215 20.8839 12.4495C21.1183 12.6839 21.25 13.0018 21.25 13.3333C21.25 13.6649 21.1183 13.9828 20.8839 14.2172C20.6495 14.4516 20.3315 14.5833 20 14.5833H11.6667C11.3351 14.5833 11.0172 14.4516 10.7828 14.2172C10.5484 13.9828 10.4167 13.6649 10.4167 13.3333ZM10.4167 20C10.4167 19.6685 10.5484 19.3505 10.7828 19.1161C11.0172 18.8817 11.3351 18.75 11.6667 18.75H28.3333C28.6649 18.75 28.9828 18.8817 29.2172 19.1161C29.4516 19.3505 29.5833 19.6685 29.5833 20C29.5833 20.3315 29.4516 20.6495 29.2172 20.8839C28.9828 21.1183 28.6649 21.25 28.3333 21.25H11.6667C11.3351 21.25 11.0172 21.1183 10.7828 20.8839C10.5484 20.6495 10.4167 20.3315 10.4167 20ZM20 25.4167C19.6685 25.4167 19.3505 25.5484 19.1161 25.7828C18.8817 26.0172 18.75 26.3352 18.75 26.6667C18.75 26.9982 18.8817 27.3161 19.1161 27.5506C19.3505 27.785 19.6685 27.9167 20 27.9167H28.3333C28.6649 27.9167 28.9828 27.785 29.2172 27.5506C29.4516 27.3161 29.5833 26.9982 29.5833 26.6667C29.5833 26.3352 29.4516 26.0172 29.2172 25.7828C28.9828 25.5484 28.6649 25.4167 28.3333 25.4167H20Z" fill="black"/>
</svg>
