<svg width="24" height="24" viewBox="0 0 24 24" fill="none" xmlns="http://www.w3.org/2000/svg">
<path d="M8.15101 10.35L10.721 12.187C11.094 12.4536 11.541 12.5969 11.9995 12.5969C12.458 12.5969 12.905 12.4536 13.278 12.187L15.848 10.35M2.88601 15.151C2.37227 13.0817 2.37227 10.9183 2.88601 8.849C3.21576 7.52096 3.90956 6.31128 4.88934 5.35605C5.86913 4.40082 7.09602 3.73795 8.43201 3.442L8.88501 3.341C10.9374 2.88613 13.0646 2.88613 15.117 3.341L15.57 3.441C16.9061 3.73703 18.1331 4.40005 19.1129 5.35547C20.0927 6.31088 20.7864 7.52077 21.116 8.849C21.63 10.919 21.63 13.082 21.116 15.151C20.7862 16.479 20.0925 17.6887 19.1127 18.6439C18.1329 19.5992 16.906 20.262 15.57 20.558L15.117 20.659C13.0646 21.1138 10.9374 21.1138 8.88501 20.659L8.43201 20.559C7.0959 20.263 5.86892 19.5999 4.88912 18.6445C3.90932 17.6891 3.2156 16.4792 2.88601 15.151Z" stroke="black" stroke-width="1.5" stroke-linecap="round"/>
</svg>
