<svg width="24" height="24" viewBox="0 0 24 24" fill="none" xmlns="http://www.w3.org/2000/svg">
<path d="M4.082 14.637C3.63892 12.7865 3.63892 10.8575 4.082 9.007L2.623 8.658C2.12503 10.7379 2.12503 12.9061 2.623 14.986L4.08301 14.637H4.082ZM19.918 9.007C20.3612 10.8575 20.3602 12.7865 19.917 14.637L21.377 14.987C21.8752 12.9067 21.8752 10.7383 21.377 8.658L19.917 9.008L19.918 9.007ZM14.882 19.567C12.9854 20.0028 11.0146 20.0028 9.118 19.567L8.782 21.03C10.899 21.516 13.102 21.516 15.218 21.03L14.882 19.568V19.567ZM9.117 4.078C11.0136 3.64204 12.9844 3.64204 14.881 4.078L15.217 2.616C13.0993 2.12922 10.8987 2.12922 8.781 2.616L9.117 4.078ZM9.117 19.568C6.611 18.993 4.665 17.078 4.081 14.638L2.622 14.988C3.34201 17.993 5.732 20.329 8.782 21.03L9.117 19.568ZM15.217 21.031C18.265 20.33 20.657 17.993 21.376 14.987L19.916 14.638C19.333 17.078 17.386 18.993 14.88 19.568L15.217 21.031ZM14.881 4.078C17.387 4.654 19.333 6.569 19.917 9.008L21.376 8.659C20.656 5.654 18.266 3.317 15.216 2.616L14.881 4.078ZM8.781 2.616C5.733 3.317 3.341 5.654 2.622 8.659L4.082 9.009C4.665 6.569 6.612 4.654 9.117 4.078L8.781 2.616ZM14.831 21C14.831 19.536 14.832 18.515 14.938 17.745C15.04 16.998 15.228 16.599 15.52 16.313L14.47 15.242C13.847 15.852 13.578 16.622 13.452 17.542C13.329 18.437 13.331 19.579 13.331 21H14.831ZM20.322 14.132C18.872 14.132 17.71 14.13 16.8 14.25C15.87 14.373 15.09 14.634 14.47 15.242L15.52 16.313C15.813 16.025 16.226 15.839 16.996 15.737C17.786 15.633 18.83 15.632 20.322 15.632V14.132Z" fill="black"/>
<path d="M9 9H12M9 12H14" stroke="black" stroke-width="1.5" stroke-linecap="round"/>
</svg>
