<svg width="24" height="24" viewBox="0 0 24 24" fill="none" xmlns="http://www.w3.org/2000/svg">
<path d="M2 19.25C1.80109 19.25 1.61032 19.329 1.46967 19.4697C1.32902 19.6103 1.25 19.8011 1.25 20C1.25 20.1989 1.32902 20.3897 1.46967 20.5303C1.61032 20.671 1.80109 20.75 2 20.75V19.25ZM22 20.75C22.1989 20.75 22.3897 20.671 22.5303 20.5303C22.671 20.3897 22.75 20.1989 22.75 20C22.75 19.8011 22.671 19.6103 22.5303 19.4697C22.3897 19.329 22.1989 19.25 22 19.25V20.75ZM4.972 20C4.972 16.169 8.112 13.05 12 13.05V11.55C7.297 11.55 3.472 15.326 3.472 20H4.972ZM12 13.05C15.889 13.05 19.028 16.169 19.028 20H20.528C20.528 15.326 16.703 11.55 12 11.55V13.05ZM9.972 11.475C9.972 11.065 10.19 10.64 10.594 10.296C11 9.951 11.526 9.75 12 9.75V8.25C11.134 8.25 10.27 8.603 9.623 9.153C8.973 9.706 8.473 10.518 8.473 11.475H9.972ZM12 9.75C12.474 9.75 13 9.951 13.406 10.296C13.81 10.64 14.028 11.065 14.028 11.475H15.528C15.528 10.518 15.027 9.705 14.378 9.153C13.729 8.603 12.866 8.25 12 8.25V9.75ZM14.028 11.475V12.85H15.528V11.475H14.028ZM8.473 11.475L8.472 12.85H9.972V11.475H8.473ZM2 20.75H22V19.25H2V20.75Z" fill="black"/>
<path d="M12 5V4M16.5 6.062L15.562 7M8.438 7L7.5 6.062" stroke="black" stroke-width="1.5" stroke-linecap="round" stroke-linejoin="round"/>
</svg>
