<svg width="24" height="24" viewBox="0 0 24 24" fill="none" xmlns="http://www.w3.org/2000/svg">
<path d="M8.04 5.34601L8.206 5.25001L7.457 3.95001L7.292 4.04601L8.042 5.34601H8.04ZM15.792 5.25001L15.957 5.34601L16.707 4.04601L16.541 3.95101L15.791 5.25101L15.792 5.25001ZM15.957 18.654L15.792 18.75L16.541 20.05L16.706 19.954L15.957 18.654ZM8.207 18.75L8.042 18.654L7.291 19.954L7.457 20.049L8.207 18.75ZM15.792 18.75C14.228 19.652 13.587 20.011 12.924 20.152L13.237 21.62C14.186 21.417 15.065 20.9 16.541 20.05L15.792 18.75ZM7.457 20.049C8.933 20.899 9.812 21.417 10.761 21.62L11.074 20.152C10.412 20.012 9.771 19.652 8.207 18.75L7.457 20.049ZM12.924 20.152C12.314 20.282 11.684 20.282 11.074 20.152L10.761 21.62C11.5772 21.7941 12.4208 21.7941 13.237 21.62L12.924 20.152ZM19.75 12C19.75 13.71 19.743 14.417 19.564 15.042L21.006 15.454C21.256 14.579 21.25 13.62 21.25 12H19.75ZM16.707 19.954C18.084 19.16 18.907 18.694 19.533 18.037L18.446 17.003C18.006 17.465 17.414 17.815 15.958 18.654L16.707 19.954ZM19.564 15.042C19.355 15.776 18.9714 16.4495 18.446 17.003L19.533 18.037C20.2252 17.3079 20.7306 16.421 21.006 15.454L19.564 15.042ZM15.958 5.34601C17.414 6.18501 18.006 6.53501 18.446 6.99701L19.533 5.96301C18.907 5.30601 18.083 4.84001 16.707 4.04601L15.958 5.34601ZM21.25 12C21.25 10.38 21.257 9.42001 21.006 8.54601L19.564 8.95801C19.744 9.58301 19.75 10.29 19.75 12H21.25ZM18.446 6.99701C18.9716 7.55079 19.3552 8.22364 19.564 8.95801L21.006 8.54601C20.7308 7.57869 20.2254 6.69242 19.533 5.96301L18.446 6.99701ZM8.206 5.25001C9.77 4.34801 10.412 3.98901 11.075 3.84801L10.762 2.38001C9.813 2.58301 8.934 3.10001 7.458 3.95001L8.208 5.25001H8.206ZM16.542 3.95001C15.066 3.10001 14.187 2.58301 13.237 2.38001L12.925 3.84801C13.587 3.98801 14.229 4.34801 15.793 5.25001L16.542 3.95001ZM11.075 3.84801C11.685 3.71801 12.315 3.71801 12.925 3.84801L13.237 2.38001C12.4209 2.20593 11.5782 2.20593 10.762 2.38001L11.075 3.84801ZM4.25 12C4.25 10.29 4.256 9.58301 4.435 8.95801L2.993 8.54601C2.743 9.42001 2.75 10.38 2.75 12H4.25ZM7.293 4.04601C5.916 4.84001 5.093 5.30601 4.467 5.96301L5.554 6.99701C5.994 6.53501 6.586 6.18501 8.042 5.34601L7.292 4.04601H7.293ZM4.435 8.95801C4.64402 8.22402 5.02861 7.55053 5.554 6.99701L4.467 5.96301C3.77429 6.69234 3.26854 7.57861 2.993 8.54601L4.436 8.95701L4.435 8.95801ZM2.75 12C2.75 13.62 2.743 14.581 2.993 15.455L4.436 15.042C4.256 14.417 4.25 13.71 4.25 12H2.75ZM8.042 18.654C6.586 17.815 5.994 17.465 5.554 17.003L4.467 18.037C5.092 18.694 5.917 19.16 7.293 19.954L8.042 18.654ZM2.993 15.455C3.271 16.425 3.776 17.311 4.467 18.037L5.554 17.003C5.02844 16.4492 4.64484 15.7764 4.436 15.042L2.993 15.455ZM12 13.973C10.965 13.973 10.094 13.107 10.094 12H8.594C8.594 13.9 10.101 15.473 12 15.473V13.973ZM13.906 12C13.906 13.107 13.036 13.973 12 13.973V15.473C13.899 15.473 15.406 13.9 15.406 12H13.906ZM12 10.027C13.035 10.027 13.906 10.893 13.906 12H15.406C15.406 10.1 13.899 8.52701 12 8.52701V10.027ZM12 8.52701C10.101 8.52701 8.594 10.1 8.594 12H10.094C10.094 10.893 10.964 10.027 12 10.027V8.52701Z" fill="black"/>
</svg>
