<svg width="32" height="32" viewBox="0 0 32 32" fill="none" xmlns="http://www.w3.org/2000/svg">
<g clip-path="url(#clip0_31_2)">
<path d="M3.73333 6.93333L9.33333 10.6667L14.9147 2.85333C15.038 2.68049 15.2008 2.53961 15.3896 2.4424C15.5784 2.3452 15.7877 2.29449 16 2.29449C16.2123 2.29449 16.4216 2.3452 16.6104 2.4424C16.7992 2.53961 16.962 2.68049 17.0853 2.85333L22.6667 10.6667L28.2667 6.93333C28.4786 6.79233 28.7265 6.71494 28.981 6.71032C29.2355 6.70569 29.486 6.77402 29.7029 6.90723C29.9199 7.04044 30.0941 7.23296 30.2051 7.46205C30.3161 7.69113 30.3592 7.9472 30.3293 8.2L28.1387 26.8227C28.1005 27.147 27.9445 27.446 27.7005 27.663C27.4564 27.8801 27.1412 28 26.8147 28H5.18533C4.85875 28 4.54355 27.8801 4.2995 27.663C4.05545 27.446 3.89954 27.147 3.86133 26.8227L1.67066 8.19867C1.64106 7.94598 1.68437 7.69009 1.79549 7.46122C1.9066 7.23235 2.08088 7.04005 2.29774 6.90701C2.51461 6.77398 2.76501 6.70577 3.01938 6.71043C3.27376 6.7151 3.52149 6.79244 3.73333 6.93333ZM16 20C16.7072 20 17.3855 19.719 17.8856 19.219C18.3857 18.7189 18.6667 18.0406 18.6667 17.3333C18.6667 16.6261 18.3857 15.9478 17.8856 15.4477C17.3855 14.9476 16.7072 14.6667 16 14.6667C15.2928 14.6667 14.6145 14.9476 14.1144 15.4477C13.6143 15.9478 13.3333 16.6261 13.3333 17.3333C13.3333 18.0406 13.6143 18.7189 14.1144 19.219C14.6145 19.719 15.2928 20 16 20Z" fill="black"/>
</g>
<defs>
<clipPath id="clip0_31_2">
<rect width="32" height="32" fill="white"/>
</clipPath>
</defs>
</svg>
