<svg width="24" height="24" viewBox="0 0 24 24" fill="none" xmlns="http://www.w3.org/2000/svg">
<path d="M15.5 12C15.5008 12.1316 15.4755 12.2621 15.4258 12.3839C15.376 12.5057 15.3027 12.6166 15.21 12.71L11.21 16.71C11.1168 16.8032 11.0061 16.8772 10.8843 16.9277C10.7624 16.9781 10.6319 17.0041 10.5 17.0041C10.3681 17.0041 10.2376 16.9781 10.1158 16.9277C9.99393 16.8772 9.88324 16.8032 9.79 16.71C9.69676 16.6168 9.6228 16.5061 9.57234 16.3842C9.52188 16.2624 9.49591 16.1319 9.49591 16C9.49591 15.8681 9.52188 15.7376 9.57234 15.6157C9.6228 15.4939 9.69676 15.3832 9.79 15.29L13.1 12L9.92 8.7C9.81771 8.60801 9.7355 8.4959 9.67852 8.37069C9.62153 8.24547 9.59099 8.10985 9.58881 7.9723C9.58664 7.83474 9.61286 7.69822 9.66585 7.57126C9.71884 7.44431 9.79746 7.32965 9.89678 7.23447C9.99611 7.13928 10.114 7.06561 10.2431 7.01807C10.3722 6.97052 10.5097 6.95013 10.647 6.95816C10.7844 6.96619 10.9186 7.00247 11.0413 7.06473C11.1639 7.12699 11.2724 7.21389 11.36 7.32L15.22 11.32C15.3963 11.5029 15.4964 11.746 15.5 12Z" fill="#15192C"/>
</svg>
