<svg width="24" height="24" viewBox="0 0 24 24" fill="none" xmlns="http://www.w3.org/2000/svg">
<path d="M1.99988 21.775L3.77488 15.75C3.45821 15.0833 3.21254 14.396 3.03788 13.688C2.86254 12.9793 2.77488 12.25 2.77488 11.5C2.77488 10.1833 3.02488 8.94567 3.52488 7.787C4.02488 6.629 4.69988 5.625 5.54988 4.775C6.39988 3.925 7.40421 3.25 8.56288 2.75C9.72088 2.25 10.9582 2 12.2749 2C13.5915 2 14.8292 2.25 15.9879 2.75C17.1459 3.25 18.1499 3.925 18.9999 4.775C19.8499 5.625 20.5249 6.629 21.0249 7.787C21.5249 8.94567 21.7749 10.1833 21.7749 11.5C21.7749 12.8167 21.5249 14.054 21.0249 15.212C20.5249 16.3707 19.8499 17.375 18.9999 18.225C18.1499 19.075 17.1459 19.75 15.9879 20.25C14.8292 20.75 13.5915 21 12.2749 21C11.5249 21 10.7955 20.9127 10.0869 20.738C9.37888 20.5627 8.69154 20.3167 8.02488 20L1.99988 21.775ZM4.22488 19.55L7.42488 18.6C7.67488 18.5333 7.91254 18.504 8.13788 18.512C8.36254 18.5207 8.59155 18.5833 8.82488 18.7C9.35821 18.9667 9.91654 19.1667 10.4999 19.3C11.0832 19.4333 11.6749 19.5 12.2749 19.5C14.5082 19.5 16.3999 18.725 17.9499 17.175C19.4999 15.625 20.2749 13.7333 20.2749 11.5C20.2749 9.26667 19.4999 7.375 17.9499 5.825C16.3999 4.275 14.5082 3.5 12.2749 3.5C10.0415 3.5 8.14988 4.275 6.59988 5.825C5.04988 7.375 4.27488 9.26667 4.27488 11.5C4.27488 12.1 4.34154 12.6917 4.47488 13.275C4.60821 13.8583 4.80821 14.4167 5.07488 14.95C5.19154 15.1667 5.25421 15.3957 5.26288 15.637C5.27088 15.879 5.24154 16.1167 5.17488 16.35L4.22488 19.55Z" fill="white"/>
</svg>
