<svg width="24" height="24" viewBox="0 0 24 24" fill="none" xmlns="http://www.w3.org/2000/svg">
<path d="M6 19.625C5.55 19.625 5.16667 19.4667 4.85 19.15C4.53333 18.8333 4.375 18.45 4.375 18C4.375 17.55 4.53333 17.1667 4.85 16.85C5.16667 16.5333 5.55 16.375 6 16.375C6.45 16.375 6.83333 16.5333 7.15 16.85C7.46667 17.1667 7.625 17.55 7.625 18C7.625 18.45 7.46667 18.8333 7.15 19.15C6.83333 19.4667 6.45 19.625 6 19.625ZM12 19.625C11.55 19.625 11.1667 19.4667 10.85 19.15C10.5333 18.8333 10.375 18.45 10.375 18C10.375 17.55 10.5333 17.1667 10.85 16.85C11.1667 16.5333 11.55 16.375 12 16.375C12.45 16.375 12.8333 16.5333 13.15 16.85C13.4667 17.1667 13.625 17.55 13.625 18C13.625 18.45 13.4667 18.8333 13.15 19.15C12.8333 19.4667 12.45 19.625 12 19.625ZM18 19.625C17.55 19.625 17.1667 19.4667 16.85 19.15C16.5333 18.8333 16.375 18.45 16.375 18C16.375 17.55 16.5333 17.1667 16.85 16.85C17.1667 16.5333 17.55 16.375 18 16.375C18.45 16.375 18.8333 16.5333 19.15 16.85C19.4667 17.1667 19.625 17.55 19.625 18C19.625 18.45 19.4667 18.8333 19.15 19.15C18.8333 19.4667 18.45 19.625 18 19.625ZM6 13.625C5.55 13.625 5.16667 13.4667 4.85 13.15C4.53333 12.8333 4.375 12.45 4.375 12C4.375 11.55 4.53333 11.1667 4.85 10.85C5.16667 10.5333 5.55 10.375 6 10.375C6.45 10.375 6.83333 10.5333 7.15 10.85C7.46667 11.1667 7.625 11.55 7.625 12C7.625 12.45 7.46667 12.8333 7.15 13.15C6.83333 13.4667 6.45 13.625 6 13.625ZM12 13.625C11.55 13.625 11.1667 13.4667 10.85 13.15C10.5333 12.8333 10.375 12.45 10.375 12C10.375 11.55 10.5333 11.1667 10.85 10.85C11.1667 10.5333 11.55 10.375 12 10.375C12.45 10.375 12.8333 10.5333 13.15 10.85C13.4667 11.1667 13.625 11.55 13.625 12C13.625 12.45 13.4667 12.8333 13.15 13.15C12.8333 13.4667 12.45 13.625 12 13.625ZM18 13.625C17.55 13.625 17.1667 13.4667 16.85 13.15C16.5333 12.8333 16.375 12.45 16.375 12C16.375 11.55 16.5333 11.1667 16.85 10.85C17.1667 10.5333 17.55 10.375 18 10.375C18.45 10.375 18.8333 10.5333 19.15 10.85C19.4667 11.1667 19.625 11.55 19.625 12C19.625 12.45 19.4667 12.8333 19.15 13.15C18.8333 13.4667 18.45 13.625 18 13.625ZM6 7.625C5.55 7.625 5.16667 7.46667 4.85 7.15C4.53333 6.83333 4.375 6.45 4.375 6C4.375 5.55 4.53333 5.16667 4.85 4.85C5.16667 4.53333 5.55 4.375 6 4.375C6.45 4.375 6.83333 4.53333 7.15 4.85C7.46667 5.16667 7.625 5.55 7.625 6C7.625 6.45 7.46667 6.83333 7.15 7.15C6.83333 7.46667 6.45 7.625 6 7.625ZM12 7.625C11.55 7.625 11.1667 7.46667 10.85 7.15C10.5333 6.83333 10.375 6.45 10.375 6C10.375 5.55 10.5333 5.16667 10.85 4.85C11.1667 4.53333 11.55 4.375 12 4.375C12.45 4.375 12.8333 4.53333 13.15 4.85C13.4667 5.16667 13.625 5.55 13.625 6C13.625 6.45 13.4667 6.83333 13.15 7.15C12.8333 7.46667 12.45 7.625 12 7.625ZM18 7.625C17.55 7.625 17.1667 7.46667 16.85 7.15C16.5333 6.83333 16.375 6.45 16.375 6C16.375 5.55 16.5333 5.16667 16.85 4.85C17.1667 4.53333 17.55 4.375 18 4.375C18.45 4.375 18.8333 4.53333 19.15 4.85C19.4667 5.16667 19.625 5.55 19.625 6C19.625 6.45 19.4667 6.83333 19.15 7.15C18.8333 7.46667 18.45 7.625 18 7.625Z" fill="#7C8FAC"/>
</svg>
