<svg width="211" height="209" viewBox="0 0 211 209" fill="none" xmlns="http://www.w3.org/2000/svg">
<circle cx="105.5" cy="105.5" r="95.4978" stroke="#13DEB9" stroke-width="16"/>
<mask id="path-2-outside-1_1_237" maskUnits="userSpaceOnUse" x="0" y="0" width="211.237" height="108.121" fill="black">
<rect fill="white" width="211.237" height="108.121"/>
<path d="M208.998 105.5C208.998 78.0507 198.094 51.7256 178.684 32.316C159.274 12.9064 132.949 2.00224 105.5 2.00224C78.0507 2.00224 51.7256 12.9064 32.316 32.316C12.9064 51.7256 2.00225 78.0507 2.00224 105.5L29.8166 105.5C29.8166 85.4275 37.7904 66.1771 51.9838 51.9837C66.1771 37.7903 85.4275 29.8166 105.5 29.8166C125.573 29.8166 144.823 37.7904 159.016 51.9837C173.21 66.1771 181.183 85.4275 181.183 105.5H208.998Z"/>
</mask>
<path d="M208.998 105.5C208.998 78.0507 198.094 51.7256 178.684 32.316C159.274 12.9064 132.949 2.00224 105.5 2.00224C78.0507 2.00224 51.7256 12.9064 32.316 32.316C12.9064 51.7256 2.00225 78.0507 2.00224 105.5L29.8166 105.5C29.8166 85.4275 37.7904 66.1771 51.9838 51.9837C66.1771 37.7903 85.4275 29.8166 105.5 29.8166C125.573 29.8166 144.823 37.7904 159.016 51.9837C173.21 66.1771 181.183 85.4275 181.183 105.5H208.998Z" fill="#5D87FF"/>
<path d="M208.998 105.5C208.998 78.0507 198.094 51.7256 178.684 32.316C159.274 12.9064 132.949 2.00224 105.5 2.00224C78.0507 2.00224 51.7256 12.9064 32.316 32.316C12.9064 51.7256 2.00225 78.0507 2.00224 105.5L29.8166 105.5C29.8166 85.4275 37.7904 66.1771 51.9838 51.9837C66.1771 37.7903 85.4275 29.8166 105.5 29.8166C125.573 29.8166 144.823 37.7904 159.016 51.9837C173.21 66.1771 181.183 85.4275 181.183 105.5H208.998Z" stroke="white" stroke-width="4" mask="url(#path-2-outside-1_1_237)"/>
<mask id="path-3-outside-2_1_237" maskUnits="userSpaceOnUse" x="80.0131" y="12.5371" width="169.721" height="185.844" fill="black">
<rect fill="white" x="80.0131" y="12.5371" width="169.721" height="185.844"/>
<path d="M157.249 195.132C172.281 186.453 184.888 174.133 193.912 159.306C202.936 144.479 208.085 127.62 208.887 110.282C209.689 92.9429 206.117 75.681 198.501 60.0842C190.884 44.4873 179.468 31.0565 165.301 21.0274L149.223 43.7385C159.581 51.0712 167.928 60.891 173.497 72.2946C179.066 83.6981 181.677 96.319 181.091 108.996C180.504 121.673 176.739 133.999 170.142 144.84C163.544 155.681 154.326 164.688 143.336 171.034L157.249 195.132Z"/>
</mask>
<path d="M157.249 195.132C172.281 186.453 184.888 174.133 193.912 159.306C202.936 144.479 208.085 127.62 208.887 110.282C209.689 92.9429 206.117 75.681 198.501 60.0842C190.884 44.4873 179.468 31.0565 165.301 21.0274L149.223 43.7385C159.581 51.0712 167.928 60.891 173.497 72.2946C179.066 83.6981 181.677 96.319 181.091 108.996C180.504 121.673 176.739 133.999 170.142 144.84C163.544 155.681 154.326 164.688 143.336 171.034L157.249 195.132Z" fill="#49BEFF"/>
<path d="M157.249 195.132C172.281 186.453 184.888 174.133 193.912 159.306C202.936 144.479 208.085 127.62 208.887 110.282C209.689 92.9429 206.117 75.681 198.501 60.0842C190.884 44.4873 179.468 31.0565 165.301 21.0274L149.223 43.7385C159.581 51.0712 167.928 60.891 173.497 72.2946C179.066 83.6981 181.677 96.319 181.091 108.996C180.504 121.673 176.739 133.999 170.142 144.84C163.544 155.681 154.326 164.688 143.336 171.034L157.249 195.132Z" stroke="white" stroke-width="4" mask="url(#path-3-outside-2_1_237)"/>
</svg>
