<svg width="654" height="101" viewBox="0 0 654 101" fill="none" xmlns="http://www.w3.org/2000/svg">
<path d="M1.34042 99.7709C10.3555 81.9181 33.9752 49.2158 56.3327 61.2289C73.0107 71.2398 92.8439 83.8536 119.889 66.2344C133.111 55.8898 161.359 42.6104 196.969 68.7371C222.211 87.2573 263.23 85.7556 286.218 41.2071C292.679 25.8571 299.29 -4.84307 314.165 2.66514C322.73 6.98805 341.211 82.3519 380.877 80.7502C398.457 78.748 437.492 66.5347 452.998 33.6989C459.759 21.6858 478.421 19.5836 495.369 55.2224C507.99 78.748 550.361 98.7698 598.592 44.7109C608.81 32.6978 634.112 10.0732 653.585 15.6793" stroke="#5D87FF" stroke-width="3"/>
</svg>
