<svg width="24" height="24" viewBox="0 0 24 24" fill="none" xmlns="http://www.w3.org/2000/svg">
<path d="M15.273 18.728C13.9423 18.7282 12.6415 18.3338 11.535 17.5947C10.4284 16.8556 9.56594 15.8049 9.05653 14.5756C8.54712 13.3463 8.41368 11.9936 8.67309 10.6884C8.9325 9.38328 9.5731 8.18437 10.5139 7.2433C11.4547 6.30223 12.6534 5.66127 13.9585 5.40148C15.2635 5.14168 16.6163 5.27472 17.8458 5.78376C19.0752 6.29281 20.1261 7.15499 20.8656 8.2613C21.605 9.3676 21.9998 10.6683 22 11.999V12C21.9982 13.7836 21.2889 15.4937 20.0277 16.755C18.7666 18.0163 17.0566 18.7259 15.273 18.728Z" fill="#FFD995"/>
<path d="M8.727 18.728C7.39632 18.728 6.09553 18.3334 4.98912 17.5941C3.88271 16.8549 3.02036 15.8041 2.51113 14.5747C2.00191 13.3453 1.86867 11.9925 2.12827 10.6874C2.38787 9.38233 3.02865 8.18352 3.96958 7.24259C4.91051 6.30166 6.10932 5.66088 7.41443 5.40128C8.71953 5.14168 10.0723 5.27492 11.3017 5.78414C12.5311 6.29337 13.5818 7.15572 14.3211 8.26213C15.0604 9.36854 15.455 10.6693 15.455 12C15.4531 13.7838 14.7437 15.494 13.4824 16.7554C12.221 18.0167 10.5108 18.7262 8.727 18.728Z" fill="#FFAE1F"/>
</svg>
