<svg width="24" height="24" viewBox="0 0 24 24" fill="none" xmlns="http://www.w3.org/2000/svg">
<path d="M20.65 8.99999H2.64999C2.38478 8.99999 2.13042 8.89464 1.94289 8.7071C1.75535 8.51956 1.64999 8.26521 1.64999 7.99999V4.99999C1.64999 4.56999 1.92599 4.18799 2.33399 4.05199L11.334 1.05199C11.539 0.982994 11.761 0.982994 11.967 1.05199L20.967 4.05199C21.1659 4.11833 21.339 4.24558 21.4615 4.41573C21.5841 4.58588 21.6501 4.79029 21.65 4.99999V7.99999C21.65 8.26521 21.5446 8.51956 21.3571 8.7071C21.1696 8.89464 20.9152 8.99999 20.65 8.99999ZM20.65 22H2.64999C2.38478 22 2.13042 21.8946 1.94289 21.7071C1.75535 21.5196 1.64999 21.2652 1.64999 21V19C1.65079 18.2046 1.96711 17.442 2.52955 16.8796C3.09199 16.3171 3.85459 16.0008 4.64999 16H18.65C19.4454 16.0008 20.208 16.3171 20.7704 16.8796C21.3329 17.442 21.6492 18.2046 21.65 19V21C21.65 21.2652 21.5446 21.5196 21.3571 21.7071C21.1696 21.8946 20.9152 22 20.65 22Z" fill="#539BFF"/>
<path d="M4 9V16.076C4.21 16.029 4.426 16 4.65 16H18.65C18.77 16 18.884 16.022 19 16.036V9H4Z" fill="#D0E4FF"/>
<path d="M8 16V9H4V16.076C4.21 16.029 4.426 16 4.65 16H8ZM15 9V16H18.65C18.77 16 18.884 16.022 19 16.036V9H15Z" fill="#9FC7FF"/>
</svg>
