<svg width="24" height="24" viewBox="0 0 24 24" fill="none" xmlns="http://www.w3.org/2000/svg">
<path d="M8.88188 19.94C8.80479 20.4257 8.38601 20.7833 7.89424 20.7833H4.06249C3.21575 20.7851 2.52786 20.1001 2.52603 19.2534C2.52585 19.1679 2.53282 19.0825 2.54688 18.9981L5.13672 2.5918C5.28397 1.67638 6.07281 1.00247 7 1H13.2139C15.7744 1 17.6221 1.62012 18.7061 2.84277C19.7527 4.04862 20.1547 5.68467 19.7861 7.23828C19.7647 7.37305 19.7431 7.50879 19.7109 7.65628C18.8877 11.8741 16.0557 14.1133 11.5254 14.1133H9.80664L8.88188 19.94ZM4.52246 19.3116L4.52052 19.3184L4.52246 19.3116ZM7.11328 2.89657L7.11228 2.89857L7.11328 2.89657Z" fill="#B2B1FF"/>
<path d="M20.4365 7.10449C20.2704 6.91852 20.0878 6.74872 19.8915 6.59649C19.8696 6.81109 19.8366 7.02545 19.7861 7.23827C19.7647 7.37304 19.7431 7.50878 19.7109 7.65624C18.8877 11.874 16.0557 14.1133 11.5254 14.1133H9.80664L8.8819 19.94C8.80481 20.4257 8.38599 20.7833 7.89423 20.7833H6.72656L6.64453 21.3037C6.63257 21.3794 6.62652 21.4559 6.62646 21.5326C6.62616 22.3427 7.28265 22.9997 8.09277 23H11.3272C12.1928 23.0073 12.9353 22.3841 13.0782 21.5303L13.7188 17.499L13.7296 17.4444H14.0284C18.0606 17.4444 20.5792 15.4512 21.3135 11.6816C21.7679 10.1034 21.4421 8.40308 20.4365 7.10449Z" fill="#615DFF"/>
</svg>
